<?xml version="1.0" encoding="iso-8859-1"?>
<!-- Generator: Adobe Illustrator 18.0.0, SVG Export Plug-In . SVG Version: 6.00 Build 0)  -->
<!DOCTYPE svg PUBLIC "-//W3C//DTD SVG 1.1//EN" "http://www.w3.org/Graphics/SVG/1.1/DTD/svg11.dtd">
<svg version="1.1" id="_x31_" xmlns="http://www.w3.org/2000/svg" xmlns:xlink="http://www.w3.org/1999/xlink" x="0px" y="0px"
	 viewBox="0 0 512 512" style="enable-background:new 0 0 512 512;" xml:space="preserve">
<g>
	<rect style="fill:#9CD1AB;" width="512" height="512"/>
	<polygon style="opacity:0.1;fill:#040000;" points="512,341.198 512,512 216.167,512 117.658,413.491 117.555,409.703 
		134.861,409.703 130.765,216.371 171.367,216.371 170.701,169.83 188.007,169.83 187.802,152.371 208.282,152.371 208.179,133.887 
		228.915,133.887 226.048,118.17 237.671,118.17 253.594,100.864 253.594,82.79 	"/>
	<g>
		<g>
			<polygon style="fill:#E3E8CE;" points="341.299,169.83 341.299,170.496 340.634,216.371 340.378,233.165 340.275,239.411 
				171.725,239.411 171.622,233.165 171.367,216.371 170.701,169.83 			"/>
			<polygon style="fill:#E3E8CE;" points="324.198,152.371 324.198,153.395 323.994,169.83 323.994,171.06 188.007,171.06 
				188.007,169.83 187.802,152.371 			"/>
			<polygon style="fill:#E3E8CE;" points="303.821,133.887 303.718,152.371 303.718,152.73 208.282,152.73 208.282,152.371 
				208.179,133.887 			"/>
			<polygon style="fill:#E3E8CE;" points="381.235,216.371 377.139,409.703 377.088,411.29 134.912,411.29 134.861,409.703 
				130.765,216.371 			"/>
			<polygon style="fill:#539994;" points="394.445,409.703 393.933,429.465 118.067,429.465 117.658,413.491 117.555,409.703 			"/>
			<g>
				<polygon style="fill:#539994;" points="285.952,118.17 283.085,133.887 283.034,134.298 228.967,134.298 228.915,133.887 
					226.048,118.17 				"/>
				<polygon style="fill:#539994;" points="278.067,122.215 233.933,122.215 237.671,118.17 253.594,100.864 256,98.253 
					258.407,100.864 274.33,118.17 274.381,118.17 				"/>
				<rect x="253.594" y="82.535" style="fill:#539994;" width="4.813" height="21.81"/>
			</g>
			<g>
				<polygon style="fill:#9BCBA6;" points="179.401,340.816 150.357,340.816 149.891,315.436 179.063,315.436 				"/>
				<polygon style="fill:#9BCBA6;" points="224.962,340.816 195.917,340.816 195.652,315.436 224.825,315.436 				"/>
				<polygon style="fill:#9BCBA6;" points="270.522,340.816 241.478,340.816 241.414,315.436 270.586,315.436 				"/>
				<polygon style="fill:#9BCBA6;" points="316.083,340.816 287.038,340.816 287.175,315.436 316.348,315.436 				"/>
				<polygon style="fill:#9BCBA6;" points="361.643,340.816 332.598,340.816 332.937,315.436 362.109,315.436 				"/>
			</g>
			<g>
				<polygon style="fill:#9BCBA6;" points="178.857,299.941 149.606,299.941 149.133,274.198 178.514,274.198 				"/>
				<polygon style="fill:#9BCBA6;" points="224.741,299.941 195.49,299.941 195.221,274.198 224.602,274.198 				"/>
				<polygon style="fill:#9BCBA6;" points="270.625,299.941 241.374,299.941 241.309,274.198 270.69,274.198 				"/>
				<polygon style="fill:#9BCBA6;" points="316.51,299.941 287.259,299.941 287.398,274.198 316.779,274.198 				"/>
				<polygon style="fill:#9BCBA6;" points="362.394,299.941 333.143,299.941 333.486,274.198 362.867,274.198 				"/>
			</g>
			<g>
				<polygon style="fill:#9BCBA6;" points="178.315,259.278 148.859,259.278 148.379,233.171 177.967,233.171 				"/>
				<polygon style="fill:#9BCBA6;" points="224.522,259.278 195.065,259.278 194.792,233.171 224.381,233.171 				"/>
				<polygon style="fill:#9BCBA6;" points="270.728,259.278 241.272,259.278 241.206,233.171 270.794,233.171 				"/>
				<polygon style="fill:#9BCBA6;" points="316.935,259.278 287.478,259.278 287.619,233.171 317.208,233.171 				"/>
				<polygon style="fill:#9BCBA6;" points="363.141,259.278 333.685,259.278 334.033,233.171 363.621,233.171 				"/>
			</g>
			<g>
				<polygon style="fill:#9BCBA6;" points="224.25,208.935 194.539,208.935 194.261,182.374 224.106,182.374 				"/>
				<polygon style="fill:#9BCBA6;" points="270.855,208.935 241.145,208.935 241.077,182.374 270.922,182.374 				"/>
				<polygon style="fill:#9BCBA6;" points="317.461,208.935 287.75,208.935 287.894,182.374 317.739,182.374 				"/>
			</g>
			<g>
				<polygon style="fill:#9BCBA6;" points="282.985,409.004 257.883,409.004 257.895,371.564 283.163,371.564 				"/>
				<polygon style="fill:#9BCBA6;" points="254.117,409.004 229.015,409.004 228.837,371.564 254.105,371.564 				"/>
			</g>
			<g>
				<g>
					<polygon style="fill:#9BCBA6;" points="367,409.004 341.898,409.004 342.464,371.564 367.731,371.564 					"/>
					<polygon style="fill:#9BCBA6;" points="338.133,409.004 313.03,409.004 313.406,371.564 338.674,371.564 					"/>
				</g>
				<g>
					<polygon style="fill:#9BCBA6;" points="198.969,409.004 173.867,409.004 173.326,371.564 198.594,371.564 					"/>
					<polygon style="fill:#9BCBA6;" points="170.102,409.004 145,409.004 144.268,371.564 169.536,371.564 					"/>
				</g>
			</g>
		</g>
		<polygon style="opacity:0.08;fill:#040000;" points="394.44,409.685 377.135,409.685 381.258,216.39 340.624,216.39 
			341.295,169.806 323.989,169.806 324.189,152.369 303.697,152.369 303.846,133.905 283.092,133.905 285.943,118.171 
			274.373,118.171 258.398,100.844 258.406,82.532 256,82.532 256,429.477 393.958,429.477 		"/>
	</g>
</g>
</svg>
