<?xml version="1.0" encoding="iso-8859-1"?>
<!-- Generator: Adobe Illustrator 18.0.0, SVG Export Plug-In . SVG Version: 6.00 Build 0)  -->
<!DOCTYPE svg PUBLIC "-//W3C//DTD SVG 1.1//EN" "http://www.w3.org/Graphics/SVG/1.1/DTD/svg11.dtd">
<svg version="1.1" id="_x31_" xmlns="http://www.w3.org/2000/svg" xmlns:xlink="http://www.w3.org/1999/xlink" x="0px" y="0px"
	 viewBox="0 0 512 512" style="enable-background:new 0 0 512 512;" xml:space="preserve">
<g>
	<rect style="fill:#9CD1AB;" width="512" height="512"/>
	<polygon style="opacity:0.1;fill:#040000;" points="468.889,216.934 405.35,153.395 390.707,138.752 376.985,125.03 
		370.534,118.579 303.769,178.227 309.862,185.036 303.769,190.515 288.461,204.186 295.731,212.326 289.638,215.348 
		289.587,215.348 240.991,217.318 205.241,181.568 208.23,178.227 143.257,120.166 47.104,216.32 86.63,255.846 154.009,323.226 
		175.769,344.986 194.765,363.981 197.171,366.388 202.854,372.07 214.784,384 342.784,512 512,512 512,260.045 	"/>
	<g>
		<g>
			<path style="fill:#DECA94;" d="M370.381,270.746l-8.141,15.974v0.051l-13.261,26.112h-0.051l-0.358,0.768l-0.819,1.536
				l-21.35,19.098l-0.051,0.051l-0.563,0.511l-23.245,20.788l-0.307,0.256l-20.019,17.869l-2.97,2.662l-0.666,0.614l-4.506,3.994
				l-0.717,0.666h-0.051l-15.923,14.284h-0.051c-0.307,0.307-0.666,0.563-0.973,0.871l-0.256,0.256l-1.433,1.28l-0.307-0.308
				l-10.342-11.571l-2.97-3.328l-3.993-4.454l-2.765-3.123l-0.307-0.307l-2.816-3.175l-14.746-16.486l-3.072-3.43v-0.051
				l-1.434-1.587l-1.639-1.792l-0.153-0.154l-14.336-16.128l-3.072-3.379v-0.051l-3.072-3.379l-14.592-16.384l-2.969-3.328
				l8.909-7.987l9.472-8.499l26.983-24.116l18.33-16.384l13.261-11.878l4.557-4.045l2.662-1.28l33.331-16.435h0.051l6.093-3.021
				l9.626-4.761l23.245,22.579L370.381,270.746z"/>
			<polygon style="fill:#FFFFFF;" points="442.829,227.891 390.195,274.944 384.102,280.371 368.793,294.092 362.24,286.771 
				362.24,286.72 319.642,239.104 295.731,212.326 288.461,204.186 303.769,190.515 309.862,185.036 362.547,138.035 
				389.99,168.755 			"/>
			<polygon style="opacity:0.07;fill:#040000;" points="458.137,214.221 442.829,227.891 390.195,274.944 384.102,280.371 
				334.182,224.563 303.769,190.515 309.862,185.036 376.985,125.03 377.805,124.314 390.707,138.752 404.531,154.214 			"/>
			<polygon style="fill:#3B3B44;" points="470.374,215.603 468.889,216.934 396.339,281.805 390.195,274.944 339.968,218.777 
				309.862,185.036 303.769,178.227 370.534,118.579 377.805,112.076 410.317,148.429 			"/>
			<g>
				<polygon style="fill:#FCF4DD;" points="340.992,306.176 340.633,306.586 320.563,329.063 320.512,329.114 320,329.676 
					299.315,352.767 299.059,353.075 282.419,371.712 278.682,375.91 278.221,376.422 274.073,381.03 258.457,398.489 
					258.355,398.643 257.894,398.234 256.358,396.851 241.049,383.181 236.544,379.136 233.677,376.576 233.113,376.064 
					230.195,373.453 214.477,359.424 213.299,358.4 209.869,355.328 209.869,355.276 206.489,352.256 206.438,352.205 
					190.054,337.612 186.624,334.541 186.624,334.489 183.193,331.469 165.273,315.443 164.557,313.958 164.096,313.087 
					161.894,308.838 150.323,286.106 142.643,271.001 207.667,207.821 216.422,212.121 228.966,218.316 234.24,220.928 
					248.217,227.84 256.256,231.783 259.43,233.318 271.872,244.429 294.297,264.448 312.832,281.036 				"/>
				<polygon style="fill:#FFFFFF;" points="223.539,204.186 216.422,212.121 150.323,286.106 143.206,294.092 127.897,280.371 
					121.805,274.944 69.171,227.891 149.452,138.035 202.137,185.036 208.23,190.515 				"/>
				<polygon style="opacity:0.07;fill:#040000;" points="208.23,190.515 127.897,280.371 121.805,274.944 69.171,227.891 
					53.862,214.221 92.979,170.445 134.195,124.314 136.806,126.618 202.137,185.036 				"/>
				<polygon style="fill:#494849;" points="208.23,178.227 202.137,185.036 121.805,274.944 115.661,281.805 86.63,255.846 
					41.625,215.603 134.195,112.076 143.257,120.166 				"/>
				<path style="fill:#FCF4DD;" d="M315.449,282.94c-6.38-5.701-16.173-5.152-21.875,1.228c-5.701,6.38-5.152,16.173,1.228,21.875
					l37.562,33.569c6.38,5.702,16.173,5.152,21.875-1.228c5.701-6.38,5.152-16.173-1.228-21.875L315.449,282.94z"/>
				<path style="fill:#FCF4DD;" d="M294.837,306.199c-6.38-5.701-16.341-4.964-22.249,1.646c-5.908,6.611-5.525,16.592,0.854,22.293
					l37.562,33.569c6.38,5.702,16.341,4.964,22.249-1.646c5.908-6.611,5.525-16.591-0.854-22.293L294.837,306.199z"/>
				<path style="fill:#FCF4DD;" d="M266.797,323.707c-6.38-5.701-16.173-5.152-21.875,1.228c-5.702,6.38-5.152,16.173,1.228,21.875
					l37.562,33.568c6.38,5.702,16.173,5.152,21.875-1.228c5.701-6.38,5.152-16.173-1.228-21.875L266.797,323.707z"/>
				<path style="fill:#FCF4DD;" d="M276.515,394.755c-4.127,4.615-10.395,6.176-15.957,4.529c-0.706-0.207-1.401-0.465-2.078-0.781
					c-0.201-0.092-0.402-0.189-0.597-0.293c-0.62-0.316-1.217-0.677-1.797-1.085c-0.029-0.017-0.057-0.034-0.086-0.057
					c-0.471-0.333-0.924-0.695-1.36-1.085l-10.596-9.471l-7.858-7.02l-2.755-2.468l-0.689-0.614l-2.813-2.514l-12.851-11.486
					c-1.005-0.896-1.866-1.894-2.577-2.968c-0.298-0.448-0.574-0.907-0.815-1.378c-0.792-1.498-1.32-3.1-1.578-4.741
					c-0.006-0.012-0.006-0.017-0.006-0.023c-0.144-0.907-0.207-1.825-0.189-2.744c0.023-1.246,0.195-2.485,0.522-3.697
					c0.603-2.279,1.739-4.448,3.415-6.325c2.514-2.813,5.826-4.494,9.293-4.999c0.838-0.126,1.693-0.184,2.543-0.161h0.006
					c1.314,0.023,2.623,0.212,3.897,0.568c0.212,0.057,0.419,0.121,0.626,0.184c1.98,0.649,3.857,1.705,5.51,3.18l15.303,13.678
					l2.313,2.066l1.418,1.269l2.078,1.854l16.45,14.706c0.741,0.66,1.401,1.378,1.98,2.141c0.35,0.448,0.666,0.918,0.953,1.395
					c0.126,0.201,0.241,0.408,0.35,0.614c0.603,1.102,1.062,2.267,1.372,3.461C281.216,385.347,280.108,390.731,276.515,394.755z"/>
			</g>
			<path style="fill:#DECA94;" d="M249.139,233.421l-0.103,3.687l-0.358,14.643l-0.307,13.517
				c-0.205,8.55-7.27,15.309-15.821,15.104c-8.346-0.205-14.899-6.81-15.104-15.002c-0.051-0.256-0.051-0.512-0.051-0.819
				l0.768-31.846c0.153-6.809,4.659-12.441,10.803-14.388c1.587-0.511,3.328-0.767,5.069-0.716
				c6.605,0.102,12.134,4.352,14.182,10.24C248.883,229.581,249.19,231.475,249.139,233.421z"/>
			<path style="opacity:0.04;fill:#040000;" d="M282.432,371.704c-0.034,0.689-0.098,1.372-0.201,2.055
				c-0.224,1.458-0.603,2.893-1.137,4.276c-0.327,0.838-0.706,1.659-1.154,2.457c-1.056,1.917-2.451,3.691-4.179,5.235
				l-15.205,13.558c-0.706-0.207-1.401-0.465-2.078-0.781l-0.12,0.132l-0.476-0.425c-0.62-0.316-1.217-0.677-1.797-1.085
				l-1.423,1.268l-0.281-0.316c-6.165,3.323-14.028,2.124-18.896-3.323c-2.841-3.18-4.127-7.203-3.915-11.153
				c0.12-2.279,0.746-4.529,1.86-6.578l-0.689-0.614l-4.454,3.966c-0.35,0.316-0.712,0.609-1.085,0.884v0.006
				c-6.36,4.735-15.406,3.915-20.79-2.118c-2.83-3.168-4.121-7.175-3.92-11.112v-0.006c0.189-3.714,1.71-7.364,4.523-10.171
				l-7.932,7.066c-0.31,0.281-0.632,0.545-0.964,0.792c-6.371,4.839-15.492,4.047-20.91-2.02c-3.49-3.903-4.638-9.086-3.536-13.827
				v-0.006c0.689-3.008,2.284-5.832,4.764-8.042l8.185-7.295l-0.012-0.012l-8.73,7.777c-2.285,2.038-4.999,3.277-7.812,3.731
				c-5.051,0.832-10.4-0.861-14.063-4.959c-5.705-6.383-5.154-16.175,1.229-21.875l4.443-3.955l39.381-17.401
				c0,0,8.282,4.234,9.809,7.116c1.527,2.882,0.672,4.816,0.362,7.209c0.425-0.034,0.861-0.046,1.291-0.046
				c5.717,0,11.176,2.445,14.981,6.704c2.859,3.191,4.5,7.054,4.959,11.021c2.841-1.481,6.01-2.273,9.264-2.273
				c0.431,0,0.855,0.012,1.28,0.04c5.246,0.339,10.182,2.726,13.701,6.664c4.15,4.643,5.74,10.699,4.873,16.416
				c0.264-0.012,0.528-0.017,0.792-0.017c5.717,0,11.176,2.445,14.981,6.704C281.003,361.452,282.673,366.624,282.432,371.704z"/>
			<path style="fill:#DECA94;" d="M291.379,245.965c-6.861-1.946-13.568-2.151-19.507-1.536
				c-13.414,1.485-23.142,7.321-23.142,7.321h-0.051l-12.902-2.764l-1.536-28.058l-0.205-3.327l55.552-2.253h0.051
				C289.638,215.348,313.856,252.314,291.379,245.965z"/>
			<path style="fill:#DECA94;" d="M206.408,313.071c-0.689,3.002-2.284,5.832-4.758,8.042l-8.937,7.961l-6.101,5.441l-8.73,7.777
				c-2.285,2.038-4.999,3.277-7.812,3.731c-5.051,0.832-10.4-0.861-14.063-4.959c-5.705-6.383-5.154-16.175,1.229-21.875
				l6.842-6.096l7.99-7.123l8.937-7.961c6.377-5.7,16.169-5.149,21.875,1.228C206.367,303.146,207.515,308.329,206.408,313.071z"/>
			<path style="fill:#DECA94;" d="M227.995,332.994c-0.04,0.798-0.143,1.596-0.304,2.382h-0.006
				c-0.603,2.91-2.055,5.677-4.322,7.892l-0.017,0.017c-0.161,0.161-0.327,0.316-0.494,0.465l-9.477,8.443l-1.268,1.131
				l-2.233,1.986l-2.841,2.531c-0.006,0.006-0.012,0.012-0.017,0.017l-7.932,7.066c-0.31,0.281-0.632,0.545-0.964,0.792
				c-6.371,4.839-15.492,4.047-20.91-2.02c-3.49-3.903-4.638-9.086-3.536-13.827v-0.006c0.689-3.008,2.284-5.832,4.764-8.042
				l8.185-7.295l6.101-5.436l9.477-8.443c2.284-2.038,4.999-3.277,7.812-3.737c5.051-0.827,10.406,0.867,14.068,4.965
				C226.916,325.044,228.202,329.056,227.995,332.994z"/>
			<path style="fill:#DECA94;" d="M256.741,351.476c-0.31,1.228-0.769,2.422-1.389,3.559c0,0.006-0.006,0.012-0.012,0.017
				c-0.821,1.521-1.917,2.927-3.283,4.15l-18.052,16.077l-0.89,0.798l-0.373,0.333l-4.454,3.966
				c-0.35,0.316-0.712,0.609-1.085,0.884v0.006c-6.36,4.735-15.406,3.915-20.79-2.118c-2.83-3.168-4.121-7.175-3.92-11.112v-0.006
				c0.189-3.714,1.71-7.364,4.523-10.171c0.006-0.006,0.011-0.011,0.017-0.017c0.201-0.189,0.402-0.385,0.608-0.568l2.221-1.98
				l2.239-1.992l1.257-1.125l9.987-8.891l0.017-0.017l8.047-7.169c0.058-0.052,0.115-0.103,0.178-0.155
				c0.253-0.218,0.511-0.43,0.775-0.626c2.652-2.026,5.786-3.065,8.931-3.146c4.402-0.126,8.828,1.619,11.991,5.155
				C256.85,341.317,257.969,346.649,256.741,351.476z"/>
			<path style="fill:#DECA94;" d="M277.358,374.7c-0.029,0.103-0.057,0.212-0.092,0.321c-0.695,2.457-2.009,4.764-3.926,6.681
				c-0.006,0.006-0.012,0.011-0.017,0.017c-0.201,0.201-0.408,0.396-0.62,0.586l-15.343,13.678l-0.006,0.006
				c-0.333,0.293-0.672,0.574-1.022,0.838c-0.109,0.08-0.218,0.161-0.333,0.241c-0.522,0.373-1.062,0.706-1.618,1.01
				c-6.165,3.323-14.028,2.124-18.896-3.323c-2.841-3.18-4.127-7.203-3.915-11.153c0.12-2.279,0.746-4.529,1.86-6.578
				c0.08-0.149,0.161-0.298,0.252-0.442c0.19-0.333,0.396-0.654,0.62-0.97c0.677-0.981,1.481-1.9,2.411-2.732l15.343-13.678
				c1.423-1.274,3.019-2.233,4.701-2.882c0.006-0.006,0.012-0.012,0.023-0.012c1.125-0.436,2.29-0.74,3.472-0.895
				c4.936-0.683,10.108,1.022,13.678,5.017C277.531,364.454,278.638,369.838,277.358,374.7z"/>
		</g>
		<path style="opacity:0.04;fill:#040000;" d="M189.956,368.804c2.882-0.223,5.724-1.235,8.163-3.087
			c0.333-0.247,0.655-0.511,0.964-0.792l7.933-7.066c-2.813,2.807-4.333,6.457-4.523,10.171v0.006
			c-0.201,3.938,1.09,7.944,3.92,11.112c5.384,6.033,14.43,6.853,20.79,2.118v-0.006c0.374-0.276,0.735-0.568,1.085-0.884
			l4.454-3.966l0.688,0.614c-1.113,2.049-1.739,4.299-1.86,6.578c-0.212,3.949,1.073,7.973,3.915,11.152
			c4.867,5.448,12.731,6.647,18.896,3.324l0.281,0.315l1.424-1.268c0.579,0.408,1.177,0.769,1.796,1.084l0.477,0.425l0.121-0.132
			c0.677,0.316,1.372,0.574,2.078,0.781c5.562,1.648,11.83,0.086,15.957-4.529c3.593-4.024,4.701-9.408,3.427-14.264
			c0.447-0.796,0.825-1.616,1.151-2.453l2.619,2.34c6.38,5.701,16.173,5.151,21.875-1.228c4.948-5.537,5.173-13.638,0.979-19.411
			l4.439,3.966c6.38,5.702,16.341,4.965,22.248-1.646c5.908-6.61,5.526-16.591-0.854-22.293l-6.068-5.424l0.07-0.063l5.964,5.33
			c6.38,5.701,16.173,5.151,21.875-1.228c5.701-6.379,5.152-16.173-1.228-21.874l-4.072-3.639l13.301-26.148l6.567,7.349
			l21.399-19.124l6.12,6.848l74.041-66.169l-60.044-67.188L189.956,368.804z"/>
	</g>
</g>
</svg>
